<svg width="33" height="32" viewBox="0 0 33 32" fill="none" xmlns="http://www.w3.org/2000/svg">
<g id="fe:target" clip-path="url(#clip0_16112_177)">
<path id="Vector" d="M29.2009 17.6C28.8448 20.4198 27.5607 23.041 25.5509 25.0508C23.5412 27.0606 20.9199 28.3447 18.1001 28.7008V32H14.9001V28.7008C12.0803 28.3447 9.45902 27.0606 7.44925 25.0508C5.43949 23.041 4.15541 20.4198 3.79927 17.6H0.500061V14.4H3.79927C4.15541 11.5801 5.43949 8.95888 7.44925 6.94912C9.45902 4.93935 12.0803 3.65527 14.9001 3.29913V-7.62939e-05H18.1001V3.29913C20.9199 3.65527 23.5412 4.93935 25.5509 6.94912C27.5607 8.95888 28.8448 11.5801 29.2009 14.4H32.5001V17.6H29.2009ZM16.5001 25.6C19.0462 25.6 21.488 24.5886 23.2883 22.7882C25.0887 20.9879 26.1001 18.546 26.1001 16C26.1001 13.4539 25.0887 11.0121 23.2883 9.21172C21.488 7.41137 19.0462 6.39994 16.5001 6.39994C13.954 6.39994 11.5122 7.41137 9.71186 9.21172C7.91151 11.0121 6.90008 13.4539 6.90008 16C6.90008 18.546 7.91151 20.9879 9.71186 22.7882C11.5122 24.5886 13.954 25.6 16.5001 25.6ZM16.5001 20.8C17.7731 20.8 18.994 20.2943 19.8942 19.3941C20.7944 18.4939 21.3001 17.273 21.3001 16C21.3001 14.7269 20.7944 13.506 19.8942 12.6058C18.994 11.7057 17.7731 11.2 16.5001 11.2C15.2271 11.2 14.0062 11.7057 13.106 12.6058C12.2058 13.506 11.7001 14.7269 11.7001 16C11.7001 17.273 12.2058 18.4939 13.106 19.3941C14.0062 20.2943 15.2271 20.8 16.5001 20.8Z" fill="#49FFC8"/>
</g>
<defs>
<clipPath id="clip0_16112_177">
<rect width="32" height="32" fill="white" transform="translate(0.5)"/>
</clipPath>
</defs>
</svg>
