<svg width="33" height="32" viewBox="0 0 33 32" fill="none" xmlns="http://www.w3.org/2000/svg">
<g id="mdi:sword-cross" clip-path="url(#clip0_16112_558)">
<path id="Vector" d="M7.77217 1.60173L25.6794 19.509L28.8696 16.3188L30.9914 18.4406L27.2745 22.1575L32.0599 26.9428C32.6467 27.5297 32.6467 28.4777 32.0599 29.0646L30.9914 30.133C30.8522 30.2725 30.6869 30.3832 30.5048 30.4587C30.3228 30.5342 30.1276 30.5731 29.9305 30.5731C29.7335 30.5731 29.5383 30.5342 29.3563 30.4587C29.1742 30.3832 29.0089 30.2725 28.8696 30.133L24.0242 25.3627L20.3524 29.0796L18.2306 26.9578L21.4208 23.7676L3.51355 5.86035V1.60173H7.77217ZM22.3538 12.9781L29.4866 5.8453V1.60173H25.228L18.0952 8.73455L22.3538 12.9781ZM14.905 20.5022L10.6464 16.1834L7.32073 19.509L4.13052 16.3188L2.00873 18.4406L5.72562 22.1575L0.940318 26.9578C0.800816 27.0971 0.690141 27.2624 0.614627 27.4445C0.539113 27.6265 0.500244 27.8216 0.500244 28.0187C0.500244 28.2158 0.539113 28.411 0.614627 28.593C0.690141 28.775 0.800816 28.9404 0.940318 29.0796L2.00873 30.148C2.59561 30.7349 3.54364 30.7349 4.13052 30.148L8.97602 25.3627L12.6478 29.0796L14.7696 26.9578L11.5793 23.7676L14.905 20.5022Z" fill="#49FFC8"/>
</g>
<defs>
<clipPath id="clip0_16112_558">
<rect width="32" height="32" fill="white" transform="translate(0.5)"/>
</clipPath>
</defs>
</svg>
